<svg version="1.1" id="Layer_1" xmlns="http://www.w3.org/2000/svg" x="0" y="0" viewBox="0 0 115 102.5" xml:space="preserve"><style>.st0{fill:#3fad49}</style><path d="M48.6 102.5c1.3-5 3.3-9.9 3.8-15 1-11-3.9-20-11.7-27.4-.9-.8-1.8-1.6-2.4-2.7 9 3.3 15.3 9.9 20.8 17.8 5.8-6.6 8.6-14.1 9-22.7 2.3 8.2 1.3 16.3-1.2 24.1-2.9 8.8-6.7 17.3-10.2 25.9h-8.1z"/><path d="M62.2 62.8c.1 2.8-1.7 4.9-4.1 5-3 .1-6-3.1-6.2-6.6-.1-2.9 1.8-5.3 4.3-5.3 3 .1 6 3.4 6 6.9zM82.4 60.3c4.8-4.4 10.1-4.1 15.5 1-3.1 4.6-11.1 6.3-15.4 1.4 2.7-.3 5.4-1.1 8.1-1.4l-8.2-1zM72 83c6.1 2.3 8.2 7.1 6.2 14.3-5.5-.7-10.7-7.1-8.3-13.1 1.5 2.3 3.4 4.3 4.9 6.5L72 83zM32.6 62.6c-4.8 4.4-10.1 4.1-15.5-1 3.1-4.6 11.1-6.3 15.4-1.4-2.7.3-5.4 1.1-8.1 1.4l8.2 1zM46.4 83.9c1.1 6.5-2.1 10.7-9.3 12.5-2.2-5.1.8-12.8 7.2-13.7-1.3 2.5-2 5.1-3.2 7.5l5.3-6.3zM68.1 39.5C67 33 70.2 28.8 77.4 27c2.2 5.1-.8 12.8-7.2 13.7 1.3-2.5 2-5.1 3.2-7.5l-5.3 6.3zM43.8 40.2c-6.2-2.1-8.3-7-6.5-14.2 5.6.6 10.8 6.8 8.5 12.9-1.6-2.3-3.5-4.2-5-6.4l3 7.7zM57.5 37.2c-.3 1.7-.7 3.5-1 5.3-3.1-3.9-2.7-7.4 1-11.1 3.8 3.7 4.1 7.2.9 11.4l-.9-5.6zM40.9 52.9c-5.2.7-7.6-1-9.5-6.5 5.6-1.2 8.3 0 10.4 4.9-1.9-.9-3.7-1.3-5.4-2l4.5 3.6zM73.8 51.3c2.2-4.7 4.9-5.9 10.6-4.6-1.9 5.4-4.4 7-9.7 6.2 1.7-1.2 3.1-2.5 4.5-3.5l-5.4 1.9zM74.7 70.3c5.2-.5 7.5 1.3 9.3 6.8-5.6 1-8.3-.3-10.3-5.3 1.9.9 3.7 1.4 5.3 2.2l-4.3-3.7zM41.6 72.1c-2.2 4.7-4.9 5.8-10.6 4.5 2-5.3 4.5-7 9.8-6.2-1.7 1.1-3.1 2.5-4.5 3.5l5.3-1.8z"/><g><path class="st0" d="M12.9 74.5L8 76.4l1.5 3.9 4.9-1.9.9 2.3-11.7 4.5-.9-2.3 4.8-1.8-1.5-4L1.2 79l-.9-2.3L12 72.2l.9 2.3zM10.8 65.5l-.8.1c.7.5 1 1 1.2 2.1.2 1 0 1.8-.4 2.4-.4.6-1.1.9-1.9 1.1-1.4.2-2.8-.6-3.1-2.7l-.3-2.1-.4.1c-1 .2-1.3.7-1.2 1.9.1.9.4 1.2 1 1.6l-1.2 1.7C2.6 71 2.2 70.1 2 68.6c-.4-2.5.5-4 2.6-4.3l5.9-.9.3 2.1zm-3.8.7l.3 1.8c.1.8.6 1.2 1.2 1.1.6-.1 1-.6.8-1.5-.1-.6-.2-1-.7-1.4-.1-.2-.5-.2-1.1-.1l-.5.1zM10.6 56.1l-5.5-.2c-1.2 0-1.7.7-1.7 1.4s.4 1.5 1.6 1.6l5.5.2-.1 2.3-9.1-.3.1-2.2h.8c-.6-.6-.9-1.5-.9-2.3 0-.9.4-1.6.9-2.1.8-.7 1.6-.9 2.6-.8l5.8.2v2.2zM12.1 47.1l-.8-.2c.5.8.6 1.5.4 2.4-.2.9-.7 1.6-1.3 2-1.1.7-2.6.3-4 0-1.3-.3-2.8-.7-3.5-1.8-.4-.6-.5-1.5-.3-2.4.2-.9.6-1.5 1.4-1.9l-4-1L.5 42l12.1 3-.5 2.1zM4.8 47c-.3 1.3.7 1.8 2.2 2.1 1.4.3 2.6.4 2.9-.9.3-1.3-.7-1.8-2.2-2.1-1.5-.4-2.6-.4-2.9.9zM5.4 34.7l-1.7-.8 1-2.1 1.7.8-1 2.1zm9.6 4.8l-8.1-4.1 1-2 8.1 4.1-1 2zM20 31.2L15.5 28c-1-.7-1.8-.3-2.2.3-.4.6-.5 1.5.5 2.2l4.5 3.2-1.3 1.9-7.4-5.3 1.3-1.8.7.5c-.2-.8.1-1.7.5-2.4.5-.7 1.2-1.2 1.9-1.3 1-.2 1.8.2 2.7.7l4.8 3.4-1.5 1.8zM30.5 21l-3.2-4.1-3.3 2.6 3.2 4.1-1.9 1.5-7.6-9.9 1.9-1.5 3.1 4 3.3-2.6-3.1-4 1.9-1.5 7.6 9.9-1.9 1.5zM38.5 16.5l-.3-.7c-.3.8-.7 1.3-1.6 1.8-.9.4-1.7.5-2.4.3s-1.2-.8-1.6-1.5c-.6-1.3-.2-2.8 1.7-3.7l1.9-.9-.2-.5c-.4-.9-1.1-1.1-2.1-.6-.8.4-1.1.7-1.3 1.4l-1.9-.7c.4-1.3 1.1-1.9 2.4-2.5 2.3-1.1 4-.7 4.9 1.2l2.6 5.4-2.1 1zm-1.7-3.4l-1.6.8c-.7.4-1 .9-.7 1.5.3.6.8.8 1.6.4.6-.3.9-.5 1.1-1 .1-.3 0-.7-.2-1.2l-.2-.5zM47.4 13.6L46 8.3c-.3-1.2-1.2-1.4-1.9-1.2s-1.4.8-1.1 2l1.4 5.3-2.2.6L40 6.2l2.2-.5.2.8c.4-.8 1.2-1.3 2-1.5.9-.2 1.7-.1 2.3.3.9.5 1.3 1.3 1.5 2.3l1.4 5.7-2.2.3zM56.5 12.5v-.9c-.6.7-1.2 1-2.2 1.1-.9 0-1.7-.2-2.3-.7-1-.9-1-2.4-1.1-3.8s-.1-2.9.7-3.9c.5-.5 1.3-.9 2.2-.9.9 0 1.6.2 2.3.8L55.9.1l2.2-.1.6 12.4-2.2.1zm-1.9-7c-1.4.1-1.5 1.2-1.4 2.7.1 1.5.3 2.6 1.7 2.5s1.5-1.2 1.4-2.7c-.1-1.5-.4-2.6-1.7-2.5zM73.3 15.1l-1.8-.5-.4-6-3.3 5-1.8-.4-.4-9.5 2.4.6v5.8l3.2-5 1.6.4.4 5.9 2.8-5 2.4.6-5.1 8.1zM76.6 16.6l3.9-8.2 2.1 1-3.9 8.2-2.1-1zm4.5-9.7l.8-1.7 2.1 1-.8 1.7-2.1-1zM83.1 20.1c-1.6-1-1.6-2.5-.9-3.6l2.4-3.8-.8-.5.9-1.5.8.5 1.4-2.3 1.9 1.2-1.4 2.3 1.4.8-.9 1.5-1.4-.8-2.3 3.7c-.3.4-.2.8.2 1.1l.7.4-1 1.6-1-.6zM89.4 25l3.6-4.2c.8-.9.5-1.7-.1-2.2s-1.4-.6-2.2.3l-3.6 4.2-1.7-1.5 8.2-9.4 1.7 1.5-2.7 3.2c.9-.1 1.7.2 2.3.7 1.5 1.3 1.4 3.1.1 4.5l-3.9 4.5-1.7-1.6zM97.2 34.7c-1.4-2.2-1-4.8 1.3-6.2l6.9-4.4 1.3 2.1-6.9 4.3c-1.2.8-1.5 1.9-.8 3s1.9 1.4 3.1.6l6.9-4.3 1.3 2-6.9 4.4c-2.3 1.4-4.8.6-6.2-1.5zM98.3 44.4c-.5-1.3-.5-2.3 0-3.5l1.8.8c-.3.6-.3 1.2-.1 1.9.5 1.3 1.5 1.4 2.4 1.1l.9-.3c-.8-.3-1.3-.9-1.6-1.7-.3-.8-.3-1.7 0-2.3.5-1.1 1.6-1.6 3.1-2.1s2.6-.9 3.7-.4c.7.3 1.2.9 1.5 1.8.3.9.3 1.6-.2 2.4l.8-.3.7 2.1-8.3 3c-1.8.7-3.8-.2-4.7-2.5zm10.1-3.4c-.5-1.3-1.6-1-2.7-.6s-2.2.9-1.7 2.2c.5 1.3 1.6 1 2.8.6s2.1-.9 1.6-2.2zM104.1 53.6l.8-.1c-.7-.5-1-1-1.2-2.1-.2-1 0-1.8.4-2.4.4-.6 1.1-.9 1.9-1.1 1.4-.2 2.8.6 3.1 2.7l.3 2.1.4-.1c1-.2 1.3-.7 1.2-1.9-.1-.9-.4-1.2-1-1.6l1.2-1.7c1.1.7 1.5 1.6 1.7 3.1.4 2.5-.5 4-2.6 4.3l-5.9.9-.3-2.1zm3.8-.7l-.3-1.8c-.1-.8-.6-1.2-1.2-1.1-.6.1-1 .6-.8 1.5.1.6.2 1 .7 1.4.3.2.6.2 1.2.2l.4-.2zM104.4 62.9l5.5.2c1.2 0 1.7-.7 1.7-1.4s-.4-1.5-1.6-1.6l-5.5-.2.1-2.3 9.1.4-.1 2.2h-.8c.6.6.9 1.5.9 2.3 0 .9-.4 1.6-.9 2.1-.8.7-1.6.9-2.6.8l-5.8-.2v-2.3zM102.9 72l.8.2c-.5-.8-.6-1.5-.4-2.4.2-.9.7-1.6 1.3-2 1.1-.7 2.6-.3 4 0 1.3.3 2.8.7 3.5 1.8.4.6.5 1.5.3 2.4-.2.9-.6 1.5-1.4 1.9l4 1-.5 2.2-12.1-2.9.5-2.2zm7.3.1c.3-1.3-.7-1.8-2.2-2.1s-2.6-.4-2.9.9c-.3 1.3.7 1.8 2.2 2.1s2.6.4 2.9-.9zM99.7 80.3l.7.3c-.3-.8-.3-1.4.1-2.4.4-.9 1-1.5 1.7-1.8.7-.2 1.4-.2 2.2.2 1.3.6 2 2 1.1 3.9l-.9 2 .4.2c.9.4 1.5.2 2-.9.4-.8.3-1.2 0-1.9l1.9-.7c.5 1.2.4 2.1-.2 3.5-1.1 2.3-2.6 3.1-4.5 2.2l-5.5-2.5 1-2.1zm3.5 1.5l.7-1.6c.3-.7.2-1.3-.4-1.6-.6-.3-1.1-.1-1.5.8-.3.6-.4 1-.2 1.5.1.3.4.5.9.8l.5.1z"/></g></svg>